<svg xmlns="http://www.w3.org/2000/svg" viewBox="0 0 256 256">
  <rect width="256" height="256" fill="#aa1a2a"/>
  <circle cx="34" cy="34" r="2" fill="#c12a3c"/>
  <circle cx="50" cy="26" r="1.4" fill="#c12a3c"/>
  <circle cx="26" cy="52" r="1.4" fill="#c12a3c"/>
  <circle cx="222" cy="222" r="2" fill="#c12a3c"/>
  <circle cx="206" cy="230" r="1.4" fill="#c12a3c"/>
  <circle cx="230" cy="206" r="1.4" fill="#c12a3c"/>
  <g transform="translate(35.054 196.593) scale(0.18589 -0.18589)" fill="#fffbf0" fill-rule="evenodd">
    <path d="M766 437H811V388H766ZM615 437H659V388H615ZM464 437H508V388H464ZM342 522V303H940V522ZM533 653H753V630H533ZM533 750H753V728H533ZM397 830V550H896V830ZM70 735C134 697 220 639 258 599L350 710C307 749 219 802 156 835ZM18 477C79 438 162 380 199 340L291 451C249 489 164 542 104 576ZM40 16L165 -79C221 19 277 125 326 228L217 322C160 208 90 89 40 16ZM710 165C687 147 661 131 632 116C603 131 577 147 554 165ZM329 277V165H381C411 126 445 92 483 62C421 45 353 34 282 26C305 -4 334 -61 346 -96C447 -80 542 -57 626 -24C704 -59 794 -83 896 -97C915 -60 952 -2 982 27C910 34 844 45 784 61C847 107 899 164 936 236L844 282L820 277Z"/>
  </g>
</svg>
