<svg xmlns="http://www.w3.org/2000/svg" viewBox="0 0 256 256">
  <rect width="256" height="256" fill="#f4f1ea"/>
  <g transform="translate(63.25 -10.95) scale(7.0)">
    <path fill-rule="evenodd" clip-rule="evenodd" d="M15.4865 5.99945C15.9759 5.90335 16.482 6.04311 16.8527 6.37674C17.2541 6.70549 17.4906 7.19423 17.4992 7.71304C17.4725 8.24259 17.2127 8.73312 16.7895 9.05265L14.2599 11.0787C14.0935 11.194 13.9855 11.376 13.964 11.5773C13.9319 11.7522 13.9788 11.9323 14.092 12.0693C15.9515 14.1714 16.334 17.1978 15.056 19.6965C13.4405 22.9308 9.83715 24.3203 6.36178 23.0887C6.17529 23.0226 5.9724 23.0185 5.78339 23.0771C5.5242 23.1592 5.43186 23.285 5.25866 23.5208L5.24156 23.5441L4.15125 24.9984C4.15125 24.9984 3.23379 26.1403 4.68145 26.0821C8.19005 25.9441 9.10584 25.9441 10.9856 26.0705C14.0471 26.2799 15.3967 28.276 15.3967 29.8666C15.3967 31.748 14.1967 33.7874 10.9823 33.7874C8.56069 33.7276 7.09143 33.7126 4.58671 33.7525C4.22891 33.7584 3.89501 33.7679 3.61901 33.7757L3.61881 33.7757C3.35515 33.7831 3.14435 33.789 3.01606 33.789C2.19168 33.789 1.10636 33.573 1.09306 32.5508C1.08309 31.7065 1.81606 31.2527 2.3795 31.1929C2.87732 31.1398 3.32424 31.2002 3.81553 31.2667H3.81555H3.81556L3.81562 31.2667L3.81568 31.2667L3.81574 31.2667C4.10843 31.3063 4.41688 31.348 4.76122 31.3691C4.97566 31.382 5.18519 31.3972 5.4004 31.4127H5.40043H5.40045H5.40047H5.4005C6.01591 31.4572 6.6777 31.5051 7.63326 31.5137C8.1287 31.5197 8.51295 31.5261 8.82109 31.5313C9.62731 31.545 9.91264 31.5498 10.3058 31.5137C11.7518 31.3841 12.4283 30.8057 12.4283 29.9181C12.4283 28.9857 11.7518 28.4538 10.4604 28.2793C8.64727 28.0331 7.75902 28.0902 6.14845 28.1937C5.60648 28.2286 4.98272 28.2687 4.21441 28.3043C3.5097 28.3375 1.37561 28.3342 1.1047 26.5741C1.0432 26.0921 1.01993 25.281 2.04044 23.8799L2.90969 22.7164C3.32687 22.148 3.58449 21.676 2.97119 20.9098C2.97119 20.9098 2.51911 20.3679 2.36786 20.1702C0.9601 18.3303 0.616054 15.4416 1.8493 13.0831C3.67756 9.59282 8.10861 8.14517 11.5507 10.0914C11.8449 10.2576 12.0593 10.3275 12.3103 10.2809C12.5436 10.2429 12.6242 10.0875 12.7309 9.88166C12.7549 9.83533 12.7802 9.78644 12.8089 9.73576C12.8135 9.72477 13.0885 9.19719 13.4287 8.54436L13.429 8.54393L13.4292 8.54353C13.7064 8.01159 14.0269 7.39664 14.2798 6.91026C14.5211 6.4377 14.9659 6.10198 15.4865 5.99945ZM6.03601 21.3203C8.18504 22.3674 10.5701 21.5613 12.1258 18.4566C13.6931 15.3286 13.0848 12.533 10.9191 11.4759C8.03546 10.0698 5.59224 12.7291 4.67312 14.5574C3.10247 17.6854 3.84209 20.2217 6.00276 21.302L6.03601 21.3203Z" fill="#1E1915"/>
  </g>
</svg>
