<svg xmlns="http://www.w3.org/2000/svg" viewBox="0 0 256 256">
  <rect width="256" height="256" fill="#ffffff"/>
  <g transform="translate(-458.98 65.24) scale(0.9143)">
    <path fill-rule="evenodd" fill="#f79510" d="M 609.5 80.660156 C 615.398438 76.542969 622.226562 74.175781 629.515625 74.175781 C 641.496094 74.175781 652.253906 80.554688 659.632812 90.675781 L 675.476562 80.824219 C 668.199219 70.453125 656.113281 63.671875 642.433594 63.671875 C 628.828125 63.671875 616.800781 70.386719 609.5 80.660156 Z M 754 49.195312 L 642.464844 118.539062 L 530.9375 49.195312 L 530.9375 67.925781 L 642.464844 137.269531 L 754 67.925781 Z M 582.367188 63.902344 L 582.265625 63.890625 C 595.226562 44.566406 617.335938 31.835938 642.4375 31.835938 C 667.5625 31.835938 689.6875 44.59375 702.628906 63.9375 L 686.207031 74.148438 C 661.527344 41.429688 616.34375 35.757812 585.042969 61.574219 C 584.128906 62.332031 583.238281 63.109375 582.367188 63.902344 Z M 712.570312 57.253906 C 677.960938 9.230469 612.972656 -0.46875 567.054688 35.707031 C 563.042969 38.863281 558.574219 43.394531 555.117188 47.015625 C 573.910156 18.546875 606.378906 -0.00390625 642.4375 -0.00390625 C 679.003906 -0.00390625 711.183594 18.730469 729.800781 47.074219 L 712.796875 57.609375 L 712.570312 57.253906 "/>
  </g>
</svg>
