<?xml version="1.0" encoding="UTF-8"?>
<svg xmlns="http://www.w3.org/2000/svg" xmlns:xlink="http://www.w3.org/1999/xlink" width="754pt" height="214.71pt" viewBox="0 0 754 214.71">
<defs>
<clipPath id="clip-0">
<path clip-rule="nonzero" d="M 0 72 L 575 72 L 575 214.710938 L 0 214.710938 Z M 0 72 "/>
</clipPath>
</defs>
<path fill-rule="evenodd" fill="rgb(96.931458%, 58.432007%, 6.135559%)" fill-opacity="1" d="M 609.5 80.660156 C 615.398438 76.542969 622.226562 74.175781 629.515625 74.175781 C 641.496094 74.175781 652.253906 80.554688 659.632812 90.675781 L 675.476562 80.824219 C 668.199219 70.453125 656.113281 63.671875 642.433594 63.671875 C 628.828125 63.671875 616.800781 70.386719 609.5 80.660156 Z M 754 49.195312 L 642.464844 118.539062 L 530.9375 49.195312 L 530.9375 67.925781 L 642.464844 137.269531 L 754 67.925781 Z M 582.367188 63.902344 L 582.265625 63.890625 C 595.226562 44.566406 617.335938 31.835938 642.4375 31.835938 C 667.5625 31.835938 689.6875 44.59375 702.628906 63.9375 L 686.207031 74.148438 C 661.527344 41.429688 616.34375 35.757812 585.042969 61.574219 C 584.128906 62.332031 583.238281 63.109375 582.367188 63.902344 Z M 712.570312 57.253906 C 677.960938 9.230469 612.972656 -0.46875 567.054688 35.707031 C 563.042969 38.863281 558.574219 43.394531 555.117188 47.015625 C 573.910156 18.546875 606.378906 -0.00390625 642.4375 -0.00390625 C 679.003906 -0.00390625 711.183594 18.730469 729.800781 47.074219 L 712.796875 57.609375 L 712.570312 57.253906 "/>
<g clip-path="url(#clip-0)">
<path fill-rule="evenodd" fill="rgb(13.459778%, 13.697815%, 13.777161%)" fill-opacity="1" d="M 64.691406 179.464844 C 64.523438 181.035156 64.496094 183.023438 62.289062 185.761719 C 58.960938 190.472656 50.644531 194.964844 40.761719 194.964844 C 30.445312 194.964844 22.90625 190.824219 22.90625 182.136719 C 22.90625 169.828125 42.976562 167.152344 55.300781 166.671875 L 64.691406 166.671875 Z M 45.25 107.3125 C 24.078125 107.3125 10.347656 115.800781 5.011719 128.578125 L 22.0625 139.144531 C 29.1875 127.859375 35.992188 127.050781 45.25 127.050781 C 58.546875 127.050781 64.691406 133.367188 64.691406 143.4375 L 64.691406 151.464844 L 46.398438 151.488281 C 33.046875 151.488281 0 156.007812 0 184.507812 C 0 204.640625 15.285156 214.707031 33.941406 214.707031 C 48.625 214.707031 59.535156 208 65.492188 200.890625 L 73.824219 212.335938 L 86.523438 212.335938 L 86.523438 142.058594 C 86.523438 121.917969 73.03125 107.3125 45.25 107.3125 Z M 509.863281 145.019531 C 509.863281 134.355469 517.207031 127.050781 531.292969 127.050781 C 545.378906 127.050781 552.722656 134.355469 552.722656 145.019531 L 552.722656 151.527344 L 509.863281 151.527344 Z M 532.085938 194.96875 C 517.207031 194.96875 509.863281 187.269531 509.863281 176.605469 L 509.863281 168.121094 L 574.546875 168.121094 L 574.546875 145.019531 C 574.546875 121.328125 557.882812 107.3125 532.085938 107.3125 C 505.300781 107.3125 488.039062 122.117188 488.039062 145.414062 L 488.039062 177 C 488.039062 200.691406 505.300781 214.710938 532.085938 214.710938 C 552.164062 214.710938 566.566406 206.667969 572.609375 192.925781 L 556.765625 183.1875 C 551.140625 191.050781 543.339844 194.96875 532.085938 194.96875 Z M 319.507812 97.308594 C 326.363281 97.308594 331.921875 91.773438 331.921875 84.953125 C 331.921875 78.132812 326.363281 72.605469 319.507812 72.605469 C 312.644531 72.605469 307.085938 78.132812 307.085938 84.953125 C 307.085938 91.773438 312.644531 97.308594 319.507812 97.308594 Z M 308.59375 212.339844 L 330.417969 212.339844 L 330.417969 109.671875 L 308.59375 109.671875 Z M 450.199219 212.335938 L 472.027344 212.335938 L 472.027344 73.148438 L 450.199219 73.148438 Z M 224.351562 175.417969 L 224.351562 146.597656 C 224.351562 134.355469 234.554688 127.050781 244.628906 127.050781 C 258.96875 127.050781 267.746094 135.265625 267.746094 146.46875 L 267.746094 174.601562 L 267.742188 174.601562 C 268.078125 188.492188 258.3125 194.96875 244.820312 194.96875 C 234.554688 194.96875 224.351562 187.65625 224.351562 175.417969 Z M 267.746094 73.15625 L 267.746094 119.75 C 262.902344 113.628906 253.414062 107.3125 239.46875 107.3125 C 219.316406 107.3125 203.039062 119.15625 203.039062 145.019531 L 203.039062 177 C 203.039062 202.863281 219.511719 214.710938 238.6875 214.710938 C 253.023438 214.710938 262.902344 207.996094 268.71875 200.886719 L 276.660156 212.339844 L 289.0625 212.339844 L 289.0625 73.15625 Z M 393.621094 194.898438 C 380.128906 194.898438 370.355469 188.421875 370.695312 174.53125 L 370.695312 146.394531 C 370.695312 135.195312 379.472656 126.980469 393.8125 126.980469 C 403.882812 126.980469 414.089844 134.285156 414.089844 146.527344 L 414.089844 175.347656 C 414.089844 187.585938 403.882812 194.898438 393.621094 194.898438 Z M 349.382812 73.082031 L 349.382812 212.269531 L 361.78125 212.269531 L 369.722656 200.816406 C 375.53125 207.925781 385.414062 214.640625 399.75 214.640625 C 418.933594 214.640625 435.394531 202.792969 435.394531 176.929688 L 435.394531 144.949219 C 435.394531 119.085938 419.121094 107.238281 398.976562 107.238281 C 385.027344 107.238281 375.53125 113.554688 370.695312 119.679688 L 370.695312 73.082031 Z M 101.484375 175.816406 L 101.484375 109.679688 L 123.308594 109.679688 L 123.308594 175.011719 C 123.308594 190.871094 136.488281 194.964844 144.242188 194.964844 C 160.765625 194.964844 166.167969 185.277344 166.167969 179.742188 L 166.167969 109.679688 L 187.996094 109.679688 L 187.996094 212.34375 L 175.292969 212.34375 L 166.964844 200.890625 C 161.011719 208 151.289062 214.617188 136.804688 214.617188 C 115.96875 214.617188 101.484375 200.691406 101.484375 175.816406 "/>
</g>
</svg>
