<svg xmlns="http://www.w3.org/2000/svg" viewBox="0 0 256 256">
  <rect width="256" height="256" fill="#ffffff"/>
  <g transform="translate(-10.78 47.40) scale(0.62)">
    <path d="M86.3 117.2l150-82.6M236.5 28.8l123.7 74.3" fill="none" stroke="#d3ccb0" stroke-width="5" stroke-miterlimit="10"/>
    <path d="M357.7 223.1L99.6 242.5c-14.8 1.1-27.8-10.1-28.9-24.9L65 141.1c-1.1-14.8 10.1-27.8 24.9-28.9L348 92.8c14.8-1.1 27.8 10.1 28.9 24.9l5.7 76.5c1.1 14.8-10.1 27.8-24.9 28.9z" fill="#518abe"/>
    <path d="M115 137.4c7.5-.6 14.1.5 19.8 3.1 5.6 2.7 10.1 6.7 13.3 12.1 3.2 5.4 5.1 12 5.7 19.6.4 5.6 0 10.8-1.1 15.5-1.2 4.7-3.2 8.9-6 12.5-2.8 3.6-6.3 6.5-10.6 8.6s-9.3 3.4-15 3.8c-5.7.4-10.9-.1-15.5-1.6s-8.6-3.8-11.9-6.9c-3.3-3.1-5.8-7-7.7-11.6-1.9-4.6-3-9.6-3.5-15.1-.4-5.6 0-10.8 1.3-15.6 1.3-4.8 3.3-8.9 6.1-12.4s6.3-6.3 10.6-8.4 8.9-3.2 14.5-3.6zm23.8 35.9c-.4-5.3-1.6-9.9-3.6-13.7-2-3.8-4.7-6.5-8-8.3-3.3-1.8-7.1-2.5-11.2-2.2-2.9.2-5.6 1-8 2.3-2.4 1.3-4.4 3.1-6.1 5.3-1.6 2.3-2.9 5.1-3.7 8.4-.8 3.4-1 7.1-.7 11.2.3 4.1 1.1 7.8 2.4 11.1 1.3 3.3 3 5.9 5 8 2.1 2.1 4.4 3.5 6.9 4.4 2.5.9 5.3 1.3 8.2 1 3.8-.3 7.2-1.5 10.2-3.6 3-2.1 5.3-5.2 6.9-9.3 1.5-4 2.1-8.9 1.7-14.6zM195.2 177.3l-13.5 1 1.5 20.6c.2 2.9-.3 5.2-1.6 6.9-1.3 1.6-3 2.5-5.1 2.7-2.2.2-4.1-.5-5.5-1.9-1.5-1.4-2.3-3.6-2.5-6.5l-4.2-56.1c-.2-3.2.3-5.6 1.7-7.1s3.7-2.4 6.9-2.6l18.9-1.4c5.6-.4 9.9-.3 13 .3 3 .6 5.7 1.8 8 3.5 2.3 1.8 4.1 4 5.5 6.7 1.3 2.7 2.1 5.8 2.4 9.3.6 7.4-1.3 13.2-5.6 17.4-4.2 4.1-10.9 6.5-19.9 7.2zm-6.1-33.1l-9.9.7 1.7 22.3 9.9-.7c3.5-.3 6.4-.8 8.6-1.7 2.3-.9 4-2.2 5.1-4 1.1-1.7 1.5-4 1.3-6.6-.2-3.2-1.4-5.8-3.4-7.6-2.3-2.1-6.7-2.9-13.3-2.4zM280.3 137.7l-33.2 2.5 1.3 17.9 30.6-2.3c2.3-.2 4 .2 5.2 1.1 1.2.9 1.8 2.2 2 3.9.1 1.7-.3 3-1.3 4.2s-2.7 1.8-4.9 1.9l-30.6 2.3 1.6 20.7 34.4-2.6c2.3-.2 4.1.2 5.4 1.2 1.3 1 2 2.4 2.1 4.2.1 1.7-.4 3.2-1.4 4.3-1.1 1.2-2.8 1.8-5.1 2l-40.1 3c-3.2.2-5.6-.3-7.1-1.6s-2.4-3.6-2.6-6.7l-4.1-54.7c-.2-2.1 0-3.9.6-5.3.5-1.4 1.4-2.4 2.7-3.2s3-1.1 5.1-1.3l38.9-2.9c2.3-.2 4.1.2 5.4 1.2 1.2 1 1.9 2.3 2 4 .1 1.7-.3 3.1-1.4 4.3-1.5 1-3.2 1.7-5.5 1.9zM319.1 131l31.6 40.8-3.2-43.3c-.2-2.8.2-5 1.3-6.5s2.7-2.3 4.7-2.5c2.1-.2 3.8.4 5.2 1.7 1.3 1.3 2.1 3.4 2.3 6.2l4.3 57.3c.5 6.4-1.9 9.8-7.2 10.2-1.3.1-2.5 0-3.6-.3s-2.1-.8-3.1-1.6-1.9-1.7-2.8-2.7c-.9-1-1.8-2.1-2.6-3.2l-31-40.4 3.2 42.7c.2 2.8-.3 4.9-1.5 6.5-1.2 1.5-2.8 2.4-4.8 2.5-2.1.2-3.8-.4-5.2-1.8-1.4-1.3-2.2-3.4-2.4-6.1l-4.2-56.2c-.2-2.4-.1-4.3.4-5.7.5-1.5 1.5-2.8 2.9-3.9s2.9-1.6 4.6-1.8c1.3-.1 2.5 0 3.5.4s1.8.9 2.6 1.6c.8.7 1.6 1.6 2.4 2.7.8 1 1.7 2.2 2.6 3.4z" fill="#fff"/>
    <circle cx="239.4" cy="29.5" r="12.3" fill="#000"/>
  </g>
</svg>
